<svg version="1.1" id="Layer_1" xmlns="http://www.w3.org/2000/svg" xmlns:xlink="http://www.w3.org/1999/xlink" x="0px" y="0px" width="100%" viewBox="0 0 500 500" enable-background="new 0 0 500 500" xml:space="preserve">

<path fill="#91D0D9" opacity="1.000000" stroke="none" d="
M343.082123,162.012329 
	C339.137146,164.664810 335.364868,167.632248 331.213623,169.908600 
	C320.367004,175.856323 309.297455,181.396378 298.423004,187.294785 
	C285.270844,194.428619 271.818176,201.131302 259.290009,209.246933 
	C251.671021,214.182404 246.103622,211.840134 239.573990,208.219040 
	C226.507523,200.972870 213.238632,194.092773 200.101135,186.973251 
	C190.656006,181.854721 181.332306,176.511627 171.875000,171.416168 
	C160.326141,165.193832 148.667923,159.174744 137.105576,152.977127 
	C125.650124,146.836807 114.276222,140.544403 102.827164,134.392014 
	C92.939919,129.078888 82.980682,123.899673 73.097633,118.578873 
	C71.660294,117.805054 70.470261,116.571877 68.804123,115.268272 
	C79.071594,109.213448 89.193108,103.219513 99.344032,97.275810 
	C101.971893,95.737122 105.260025,94.891190 107.245010,92.784813 
	C110.794060,89.018707 114.194389,90.356148 117.531715,92.202812 
	C127.799110,97.884117 137.903107,103.859833 148.130859,109.614044 
	C153.273529,112.507355 158.600708,115.072327 163.748428,117.957108 
	C172.146469,122.663383 180.413971,127.603577 188.833603,132.269989 
	C196.702499,136.631149 204.752655,140.665314 212.620880,145.027664 
	C219.731506,148.969971 226.696304,153.174774 233.739914,157.238678 
	C239.269669,160.429138 244.786026,163.647491 250.409637,166.664597 
	C251.094727,167.032135 252.986633,166.550369 253.343872,165.914337 
	C257.315826,158.842926 261.095490,151.663513 265.193146,144.016769 
	C223.195618,120.805115 181.474976,97.746483 138.891296,74.210861 
	C151.644760,66.735435 163.421646,59.823536 175.207214,52.926483 
	C191.555481,43.359291 207.925735,33.829529 224.254166,24.228643 
	C230.247177,20.704834 235.839828,16.258785 242.204224,13.696953 
	C246.126740,12.118027 251.162369,13.304404 255.846863,13.995493 
	C257.007568,17.168552 257.788055,19.726545 259.074768,21.997763 
	C263.060516,29.033155 267.239075,35.959309 271.342407,42.928093 
	C279.227295,56.319172 287.111877,69.710403 294.996613,83.101562 
	C288.618256,79.588432 282.275360,76.008934 275.852844,72.578461 
	C267.226776,67.970970 258.539246,63.478596 249.843842,58.918858 
	C246.259186,65.190277 242.913162,71.402191 239.207245,77.391411 
	C237.038635,80.896164 238.665451,83.142014 241.332184,84.644852 
	C254.575668,92.108147 267.926056,99.382530 281.265320,106.674881 
	C295.084686,114.229698 308.934509,121.728806 322.938904,129.932953 
	C327.615692,138.531281 331.989655,146.530563 336.704956,154.323318 
	C338.409851,157.140961 340.932587,159.463730 343.082123,162.012329 
z" data-index="1" style="opacity: 1;"></path>
<path fill="#91D0D9" opacity="1.000000" stroke="none" d="
M353.944214,295.014801 
	C345.627808,295.344421 337.311432,295.674042 328.250244,296.293488 
	C327.336212,297.548706 327.020020,298.514008 327.019043,299.479614 
	C326.992676,326.060181 326.986938,352.640808 327.034241,379.221313 
	C327.036499,380.480988 327.556702,381.739777 327.835693,382.998962 
	C327.835693,382.998962 327.985107,383.433258 327.997742,384.138733 
	C328.010437,406.596008 328.010498,428.347839 328.010498,450.099670 
	C324.208038,452.665771 320.523804,455.432434 316.579407,457.757904 
	C307.284058,463.238220 297.877045,468.530090 288.478485,473.833160 
	C287.400085,474.441589 286.088623,474.637024 284.474243,474.584259 
	C284.031952,406.706207 284.000641,339.267883 283.969299,271.829529 
	C294.336945,266.046631 304.705475,260.265320 315.071930,254.480362 
	C326.282104,248.224609 337.433350,241.860336 348.717773,235.741623 
	C357.472504,230.994568 366.392548,226.552353 375.756531,222.222443 
	C376.912781,223.425461 377.574524,224.366257 378.186707,225.338226 
	C382.092407,231.539490 385.987183,237.747604 389.926361,244.424713 
	C389.974396,259.169586 389.952728,273.443329 390.026001,287.716614 
	C390.034973,289.470428 390.551544,291.221649 390.832886,292.974060 
	C390.832886,292.974060 390.993408,293.433075 390.998932,294.150085 
	C391.059601,303.569275 391.114746,312.271423 391.124390,321.441711 
	C391.028290,352.890900 390.977692,383.871887 390.927124,414.852905 
	C380.230377,420.912201 369.533661,426.971497 358.061218,432.942108 
	C356.868042,431.040466 356.093750,429.228912 356.087006,427.414429 
	C355.995544,402.866028 356.029541,378.317169 355.962799,353.768616 
	C355.957611,351.854431 355.431854,349.941711 355.148041,348.028290 
	C355.148041,348.028290 354.987732,347.595032 355.010284,346.886169 
	C355.031921,330.988495 355.068329,315.799438 354.982178,300.611115 
	C354.971588,298.743774 354.306183,296.880157 353.944214,295.014801 
z" data-index="2" style="opacity: 1;"></path>
<path fill="#91D0D8" opacity="1.000000" stroke="none" d="
M212.899170,474.156860 
	C202.198486,468.206848 191.480560,462.287537 180.800995,456.299835 
	C162.806091,446.210693 144.804169,436.133301 126.867050,425.942078 
	C116.931580,420.297150 107.152687,414.377319 97.247147,408.678833 
	C85.169868,401.730988 73.016228,394.915985 60.929394,387.984589 
	C53.497993,383.722961 46.025532,379.515594 38.794945,374.931427 
	C36.547539,373.506561 34.190292,371.369385 34.992157,367.035278 
	C34.994400,364.152222 35.004826,362.155518 35.005890,360.158813 
	C35.038612,298.760529 35.070415,237.362259 35.387657,176.147919 
	C39.685635,182.969147 43.753864,189.573624 47.698627,196.251038 
	C54.507484,207.776550 61.239613,219.347397 68.010666,231.208801 
	C68.034370,231.723557 68.051353,231.928741 68.053238,232.073212 
	C68.038147,232.012482 68.161423,231.990860 67.836525,232.265594 
	C67.614029,239.020081 67.716423,245.499817 67.745514,252.395828 
	C67.447525,254.403305 67.036621,255.993393 67.027000,257.585907 
	C66.933510,273.067047 66.907196,288.548584 66.627853,304.204376 
	C66.230965,304.933350 66.067940,305.487946 65.641922,306.355225 
	C65.271347,321.515625 65.154182,336.363342 65.092072,351.211243 
	C65.089645,351.790375 65.614212,352.371735 65.932922,353.233276 
	C65.990753,353.702911 66.008896,353.891388 66.014030,354.472290 
	C66.671539,355.964355 67.342056,357.063965 68.339630,358.416931 
	C74.097748,358.781921 79.530922,359.030487 84.959007,358.947205 
	C87.647552,358.905914 90.326714,358.253845 92.998016,357.948120 
	C92.985909,358.018127 92.845657,357.995422 93.165985,357.717407 
	C93.658340,356.643402 93.980850,355.847321 93.980164,355.051514 
	C93.966240,338.976562 93.915207,322.901642 93.902534,306.374939 
	C94.028061,295.597626 94.122665,285.272095 94.485199,275.143921 
	C101.258675,285.846130 107.868744,296.287964 114.244812,306.870789 
	C123.368347,322.013794 132.290451,337.278137 141.407944,352.424835 
	C142.087463,353.553711 143.643768,354.154785 144.792480,355.001221 
	C144.196320,366.829010 143.582047,378.655914 143.019501,390.485291 
	C142.908997,392.808716 142.458237,395.316071 143.139053,397.423798 
	C143.903839,399.791473 145.267868,402.663055 147.246552,403.825806 
	C158.492218,410.434021 169.982986,416.627258 181.431503,422.886444 
	C183.801804,424.182312 186.345886,425.160339 188.557098,426.706970 
	C188.676819,428.708740 188.690979,430.499878 189.478729,431.834381 
	C195.526215,442.079346 201.778137,452.203491 207.846741,462.436188 
	C210.077057,466.196869 211.984329,470.149078 214.027039,474.015350 
	C214.015121,474.016754 214.017197,474.035614 213.737549,474.064514 
	C213.271652,474.114532 213.085403,474.135712 212.899170,474.156860 
z" data-index="3" style="opacity: 1;"></path>
<path fill="#6FBCC7" opacity="1.000000" stroke="none" d="
M68.003937,230.899216 
	C61.239613,219.347397 54.507484,207.776550 47.698627,196.251038 
	C43.753864,189.573624 39.685635,182.969147 35.513077,175.916992 
	C35.848869,175.370956 36.344551,175.239777 36.840229,175.108612 
	C46.500591,180.513336 56.127895,185.978378 65.835419,191.297012 
	C70.607941,193.911789 75.558395,196.199554 80.376732,198.733414 
	C90.001709,203.795013 99.601738,208.904388 109.192093,214.031418 
	C117.862762,218.666779 126.501762,223.361328 135.164673,228.011215 
	C139.590561,230.386841 144.086273,232.636551 148.462555,235.099289 
	C152.777451,237.527481 153.746765,241.350388 152.997818,247.789841 
	C151.765533,258.384979 150.724915,269.015503 150.052399,279.659454 
	C149.135376,294.173370 148.831268,308.726196 147.898590,323.238831 
	C147.235962,333.549377 145.969330,343.821075 144.882385,354.555664 
	C143.643768,354.154785 142.087463,353.553711 141.407944,352.424835 
	C132.290451,337.278137 123.368347,322.013794 114.244812,306.870789 
	C107.868744,296.287964 101.258675,285.846130 94.440170,274.804871 
	C94.074249,273.816223 94.021271,273.364014 93.982933,272.950317 
	C93.997566,272.988861 93.919975,273.016663 94.255585,272.755005 
	C94.704567,259.548157 94.830170,246.602997 94.888824,233.657516 
	C94.891296,233.110703 94.271698,232.561050 93.572342,232.001862 
	C92.468285,231.937973 91.733803,231.884964 90.671402,231.576874 
	C82.896965,231.180908 75.450455,231.040070 68.003937,230.899216 
z" data-index="4" style="opacity: 1;"></path>
<path fill="#70BCC7" opacity="1.000000" stroke="none" d="
M295.146271,83.418625 
	C287.111877,69.710403 279.227295,56.319172 271.342407,42.928093 
	C267.239075,35.959309 263.060516,29.033155 259.074768,21.997763 
	C257.788055,19.726545 257.007568,17.168552 256.014404,14.365133 
	C261.737793,16.865694 267.501007,19.632998 273.134399,22.643200 
	C284.449005,28.689167 295.730927,34.798870 306.953186,41.014343 
	C315.213684,45.589432 323.278870,50.519794 331.572998,55.030918 
	C343.424835,61.477013 355.480988,67.548485 367.309113,74.036621 
	C377.037720,79.373085 386.514038,85.167458 396.189026,90.604309 
	C406.068634,96.156158 416.074371,101.483223 425.980927,106.987778 
	C428.933624,108.628426 431.738373,110.535378 435.328094,112.765976 
	C428.782654,116.336182 422.659393,119.665894 416.545929,123.013405 
	C409.873993,126.666718 403.059784,130.092545 396.604279,134.095947 
	C393.060364,136.293716 390.233948,136.334915 386.675873,134.317307 
	C372.771729,126.432953 358.742432,118.769241 344.760345,111.022331 
	C332.549896,104.257019 320.344696,97.482117 308.127899,90.728287 
	C303.864868,88.371544 299.574066,86.065102 295.146271,83.418625 
z" data-index="5"></path>
<path fill="#70BCC7" opacity="1.000000" stroke="none" d="
M417.984497,198.839417 
	C432.203094,190.905472 446.399323,182.930557 460.687286,175.123550 
	C461.712097,174.563599 463.407654,175.231155 464.526978,175.986755 
	C464.164581,178.132584 463.981354,179.619614 463.980804,181.106689 
	C463.961639,232.895706 463.969238,284.684723 463.947388,336.473724 
	C463.942963,346.960114 463.836548,357.446411 463.440491,367.895630 
	C462.318329,367.067810 461.324585,366.399384 460.777954,365.468445 
	C449.027710,345.456879 437.376526,325.386963 425.565308,305.411591 
	C423.762512,302.362640 421.263916,299.725128 419.072113,296.584442 
	C418.763794,295.518921 418.470520,294.766235 418.177216,294.013580 
	C418.115295,273.693909 418.053375,253.374222 417.992737,232.116211 
	C417.990845,220.398407 417.987671,209.618912 417.984497,198.839417 
z" data-index="6"></path>
<path fill="#91D0D8" opacity="1.000000" stroke="none" d="
M419.087128,296.897308 
	C421.263916,299.725128 423.762512,302.362640 425.565308,305.411591 
	C437.376526,325.386963 449.027710,345.456879 460.777954,365.468445 
	C461.324585,366.399384 462.318329,367.067810 463.507812,368.188232 
	C463.940063,368.715851 463.968414,368.913788 463.996796,369.111725 
	C463.159668,374.576538 458.426636,376.462311 454.534515,378.721710 
	C442.914185,385.467377 431.063141,391.815704 418.029388,399.023041 
	C418.029388,391.743530 418.029388,384.830261 418.346924,377.123901 
	C418.776306,374.513153 418.982117,372.695648 418.985809,370.877777 
	C419.035980,346.217651 419.058105,321.557465 419.087128,296.897308 
z" data-index="7" style="opacity: 1;"></path>
<path fill="#74BCC6" opacity="1.000000" stroke="none" d="
M343.462891,162.005737 
	C340.932587,159.463730 338.409851,157.140961 336.704956,154.323318 
	C331.989655,146.530563 327.615692,138.531281 323.093933,130.251801 
	C331.073212,134.100815 339.067719,138.307129 347.056427,142.524384 
	C351.303375,144.766327 355.577881,146.960648 359.758667,149.320465 
	C360.997467,150.019714 361.959625,151.209122 363.339722,152.431900 
	C356.458679,155.808624 350.151184,158.903885 343.462891,162.005737 
z" data-index="8" style="opacity: 1;"></path>
<path fill="#72BCC6" opacity="1.000000" stroke="none" d="
M214.038956,474.013947 
	C211.984329,470.149078 210.077057,466.196869 207.846741,462.436188 
	C201.778137,452.203491 195.526215,442.079346 189.478729,431.834381 
	C188.690979,430.499878 188.676819,428.708740 188.584183,427.079773 
	C196.766388,431.428284 204.690018,435.788696 212.550003,440.260986 
	C213.848404,440.999786 214.868057,442.228455 215.641388,443.889038 
	C215.176208,451.323120 215.169891,458.101562 214.958206,464.873596 
	C214.862762,467.926971 214.358002,470.967560 214.038956,474.013947 
z" data-index="9"></path>
<path fill="#76BCC6" opacity="1.000000" stroke="none" d="
M335.474976,336.825562 
	C330.504852,332.010803 330.173859,324.228699 335.417145,321.517242 
	C338.453918,319.946808 343.453888,320.353424 346.809570,321.727875 
	C350.202087,323.117340 351.784149,327.005035 350.339600,331.282959 
	C348.963654,335.357483 346.927582,338.398346 342.078339,337.981659 
	C339.988647,337.802094 337.923279,337.339142 335.474976,336.825562 
z" data-index="10"></path>
<path fill="#75BBC5" opacity="1.000000" stroke="none" d="
M389.885559,243.953461 
	C385.987183,237.747604 382.092407,231.539490 378.186707,225.338226 
	C377.574524,224.366257 376.912781,223.425461 376.122864,222.155212 
	C380.877686,219.632660 385.783569,217.425125 390.496887,215.907684 
	C390.164734,225.716324 390.025146,234.834900 389.885559,243.953461 
z" data-index="11"></path>
<path fill="#B3DBE1" opacity="1.000000" stroke="none" d="
M283.577515,272.047546 
	C284.000641,339.267883 284.031952,406.706207 284.095886,474.613770 
	C283.795868,475.191559 283.463226,475.300079 283.130585,475.408630 
	C283.085114,474.263550 283.000000,473.118500 282.999878,471.973419 
	C282.993286,406.229553 282.993134,340.485657 283.001587,274.741791 
	C283.001709,273.916382 283.121704,273.090973 283.577515,272.047546 
z" data-index="12"></path>
<path fill="#BCDAE0" opacity="1.000000" stroke="none" d="
M36.798492,174.686584 
	C36.344551,175.239777 35.848869,175.370956 35.227772,175.733063 
	C35.070415,237.362259 35.038612,298.760529 35.005890,360.158813 
	C35.004826,362.155518 34.994400,364.152222 34.978691,366.623840 
	C34.645626,365.587280 34.040524,364.075989 34.039364,362.564270 
	C33.992233,301.120422 33.988308,239.676514 34.061375,178.232712 
	C34.063305,176.610809 32.495945,173.265488 36.798492,174.686584 
z" data-index="13"></path>
<path fill="#E1FFFF" opacity="1.000000" stroke="none" d="
M464.397949,368.914032 
	C463.968414,368.913788 463.940063,368.715851 463.844452,368.225342 
	C463.836548,357.446411 463.942963,346.960114 463.947388,336.473724 
	C463.969238,284.684723 463.961639,232.895706 463.980804,181.106689 
	C463.981354,179.619614 464.164581,178.132584 464.548157,176.342834 
	C464.890167,215.975815 464.982697,255.911499 464.989929,295.847168 
	C464.994324,320.136902 464.867126,344.426605 464.397949,368.914032 
z" data-index="14"></path>
<path fill="#E9FFFF" opacity="1.000000" stroke="none" d="
M391.365784,414.766479 
	C390.977692,383.871887 391.028290,352.890900 391.288513,321.445251 
	C391.498138,320.980652 391.827881,320.983368 391.827881,320.983368 
	C391.820099,352.215607 391.812286,383.447845 391.365784,414.766479 
z" data-index="15"></path>
<path fill="#CFEEF3" opacity="1.000000" stroke="none" d="
M355.080444,348.491516 
	C355.431854,349.941711 355.957611,351.854431 355.962799,353.768616 
	C356.029541,378.317169 355.995544,402.866028 356.087006,427.414429 
	C356.093750,429.228912 356.868042,431.040466 357.693451,432.924866 
	C357.187347,433.366028 356.273254,433.735687 355.012878,434.245392 
	C355.012878,405.366760 355.012878,377.160767 355.080444,348.491516 
z" data-index="16"></path>
<path fill="#A6CCD2" opacity="1.000000" stroke="none" d="
M327.908203,382.534515 
	C327.556702,381.739777 327.036499,380.480988 327.034241,379.221313 
	C326.986938,352.640808 326.992676,326.060181 327.019043,299.479614 
	C327.020020,298.514008 327.336212,297.548706 327.819885,296.306091 
	C328.083099,324.709320 328.031891,353.389679 327.908203,382.534515 
z" data-index="17"></path>
<path fill="#A6CCD3" opacity="1.000000" stroke="none" d="
M419.072113,296.584442 
	C419.058105,321.557465 419.035980,346.217651 418.985809,370.877777 
	C418.982117,372.695648 418.776306,374.513153 418.413208,376.658691 
	C418.120514,349.638916 418.079102,322.291290 418.107452,294.478638 
	C418.470520,294.766235 418.763794,295.518921 419.072113,296.584442 
z" data-index="18"></path>
<path fill="#CBECF2" opacity="1.000000" stroke="none" d="
M389.926361,244.424713 
	C390.025146,234.834900 390.164734,225.716324 390.576721,216.275452 
	C390.893890,241.318222 390.938690,266.683319 390.908173,292.511230 
	C390.551544,291.221649 390.034973,289.470428 390.026001,287.716614 
	C389.952728,273.443329 389.974396,259.169586 389.926361,244.424713 
z" data-index="19"></path>
<path fill="#B7DFE4" opacity="1.000000" stroke="none" d="
M328.398712,449.885254 
	C328.010498,428.347839 328.010437,406.596008 328.013092,384.367859 
	C328.338684,384.569183 328.943909,385.247009 328.943420,385.924377 
	C328.927551,407.173218 328.852722,428.421997 328.398712,449.885254 
z" data-index="20"></path>
<path fill="#E9FFFF" opacity="1.000000" stroke="none" d="
M353.978088,295.481171 
	C354.306183,296.880157 354.971588,298.743774 354.982178,300.611115 
	C355.068329,315.799438 355.031921,330.988495 355.016602,346.655273 
	C354.662567,345.810791 354.035950,344.489441 354.030914,343.165771 
	C353.970978,327.426544 354.003632,311.687012 353.978088,295.481171 
z" data-index="21"></path>
<path fill="#A1CFD9" opacity="1.000000" stroke="none" d="
M417.586487,199.047577 
	C417.987671,209.618912 417.990845,220.398407 417.988586,231.655975 
	C417.663025,231.456940 417.064697,230.779953 417.064362,230.102707 
	C417.059601,219.820419 417.133179,209.538071 417.586487,199.047577 
z" data-index="22"></path>
<path fill="#D7F7F7" opacity="1.000000" stroke="none" d="
M214.027039,474.015350 
	C214.358002,470.967560 214.862762,467.926971 214.958206,464.873596 
	C215.169891,458.101562 215.176208,451.323120 215.570679,444.250763 
	C215.916611,453.384918 215.990356,462.815735 215.947311,472.246002 
	C215.943222,473.137512 215.205750,474.025665 214.393860,474.674591 
	C213.978958,474.433838 214.017197,474.035614 214.017197,474.035614 
	C214.017197,474.035614 214.015121,474.016754 214.027039,474.015350 
z" data-index="23"></path>
<path fill="#FFFFFF" opacity="1.000000" stroke="none" d="
M391.907837,320.522278 
	C391.827881,320.983368 391.498138,320.980652 391.334015,320.977112 
	C391.114746,312.271423 391.059601,303.569275 391.006348,294.393127 
	C391.338837,296.215973 391.908539,298.508026 391.954285,300.810547 
	C392.081757,307.225098 391.991882,313.644012 391.907837,320.522278 
z" data-index="24"></path>
<path fill="#72BCC6" opacity="1.000000" stroke="none" d="
M213.737549,474.064514 
	C214.017197,474.035614 213.978958,474.433838 213.950577,474.632141 
	C213.629379,474.768646 213.336548,474.706787 212.971451,474.400879 
	C213.085403,474.135712 213.271652,474.114532 213.737549,474.064514 
z" data-index="25"></path>

<path fill="#ABD8DB" opacity="1.000000" stroke="none" d="
M93.165985,357.717407 
	C92.904106,341.285797 92.962547,324.576141 93.275696,307.378082 
	C93.530411,306.889648 93.871620,306.826721 93.871613,306.826721 
	C93.915207,322.901642 93.966240,338.976562 93.980164,355.051514 
	C93.980850,355.847321 93.658340,356.643402 93.165985,357.717407 
z" data-index="27"></path>
<path fill="#D7F7F7" opacity="1.000000" stroke="none" d="
M66.627853,304.204376 
	C66.845703,320.578339 66.829666,337.126678 66.420334,353.877441 
	C66.008896,353.891388 65.990753,353.702911 65.967003,352.771088 
	C65.942574,336.699341 65.923744,321.370941 65.904915,306.042572 
	C66.067940,305.487946 66.230965,304.933350 66.627853,304.204376 
z" data-index="28"></path>
<path fill="#9BCCCC" opacity="1.000000" stroke="none" d="
M65.641922,306.355225 
	C65.923744,321.370941 65.942574,336.699341 65.927307,352.489868 
	C65.614212,352.371735 65.089645,351.790375 65.092072,351.211243 
	C65.154182,336.363342 65.271347,321.515625 65.641922,306.355225 
z" data-index="29"></path>
<path fill="#E9FFFF" opacity="1.000000" stroke="none" d="
M93.902542,306.374939 
	C93.871620,306.826721 93.530411,306.889648 93.358360,306.911682 
	C93.183647,295.727203 93.180984,284.520660 93.573311,273.112946 
	C94.021271,273.364014 94.074249,273.816223 94.172241,274.607483 
	C94.122665,285.272095 94.028061,295.597626 93.902542,306.374939 
z" data-index="30"></path>
<path fill="#C0E4E6" opacity="1.000000" stroke="none" d="
M68.339622,358.416931 
	C76.032013,358.105774 84.051445,358.047943 92.540504,357.934143 
	C90.326714,358.253845 87.647552,358.905914 84.959007,358.947205 
	C79.530922,359.030487 74.097748,358.781921 68.339622,358.416931 
z" data-index="31"></path>
<path fill="#BADCE1" opacity="1.000000" stroke="none" d="
M90.671402,231.576874 
	C83.663200,231.894806 76.327095,231.957657 68.529663,232.077225 
	C68.051353,231.928741 68.034370,231.723557 68.010666,231.208801 
	C75.450455,231.040070 82.896965,231.180908 90.671402,231.576874 
z" data-index="32"></path>
<path fill="#BADCE1" opacity="1.000000" stroke="none" d="
M67.836525,232.265594 
	C68.098373,238.345413 68.035324,244.699966 67.895546,251.517029 
	C67.716423,245.499817 67.614029,239.020081 67.836525,232.265594 
z" data-index="33"></path>
<path fill="#C6E4EB" opacity="1.000000" stroke="none" d="
M94.255585,272.755005 
	C93.948761,259.659760 93.977547,246.302856 93.974121,232.479340 
	C94.271698,232.561050 94.891296,233.110703 94.888824,233.657516 
	C94.830170,246.602997 94.704567,259.548157 94.255585,272.755005 
z" data-index="34"></path>
</svg>